<?xml version="1.0" encoding="UTF-8" standalone="no"?>
<!DOCTYPE svg PUBLIC "-//W3C//DTD SVG 1.1//EN" "http://www.w3.org/Graphics/SVG/1.1/DTD/svg11.dtd">
<svg width="100%" height="100%" viewBox="0 0 123 123" version="1.1" xmlns="http://www.w3.org/2000/svg" xmlns:xlink="http://www.w3.org/1999/xlink" xml:space="preserve" xmlns:serif="http://www.serif.com/" style="fill-rule:evenodd;clip-rule:evenodd;stroke-linejoin:round;stroke-miterlimit:2;">
    <g transform="matrix(0.996037,0,0,1,-10.2592,-10.33)">
        <g id="Ebene_2">
            <g id="Ebene_1-2">
                <g transform="matrix(1.00398,0,0,1,-0.0409814,0)">
                    <circle cx="71.8" cy="71.83" r="61.5" style="fill:rgb(191,166,2);"/>
                </g>
                <path d="M52,67.9C50.33,66.66 49.39,65.15 49.77,63.11C50.096,61.225 51.607,59.754 53.5,59.48C52.776,57.77 53.174,55.78 54.5,54.48C55.794,53.211 57.74,52.853 59.4,53.58C59.586,52.891 59.837,52.221 60.15,51.58C60.931,50.224 62.381,49.386 63.945,49.386C65.006,49.386 66.032,49.771 66.83,50.47C69.47,52.66 72.08,54.89 74.7,57.1L79,60.73C79.16,60.86 79.33,60.98 79.47,61.08C79.47,59.64 79.31,58.22 79.35,56.81C79.385,55.34 79.791,53.902 80.53,52.63C81.495,50.813 83.487,49.77 85.53,50.01C87.619,50.556 89.147,52.369 89.33,54.52C89.51,56.59 89.55,58.67 89.82,60.73C90.364,64.28 91.579,67.694 93.4,70.79C96.51,76.37 96.91,82.08 93.76,87.79C92.104,90.68 89.557,92.957 86.5,94.28C83.058,96.041 79.091,96.496 75.34,95.56C74.042,95.235 72.835,94.619 71.81,93.76L54.46,79.17L50.46,75.82C49.338,74.985 48.675,73.665 48.675,72.266C48.675,70.405 49.849,68.733 51.6,68.1L52,67.9ZM67.32,80.85L55,70.4C54.518,69.945 53.879,69.691 53.216,69.691C52.462,69.691 51.744,70.02 51.25,70.59C50.854,71.052 50.636,71.641 50.636,72.25C50.636,73.04 51.004,73.788 51.63,74.27C58.75,80.27 65.877,86.293 73.01,92.34C73.934,93.122 75.042,93.656 76.23,93.89C82.672,95.029 89.172,91.97 92.4,86.28C94.81,81.44 94.4,76.61 91.85,71.96C90.124,69.09 88.897,65.949 88.22,62.67C87.79,60.14 87.68,57.55 87.46,54.98C87.369,53.917 86.84,52.938 86,52.28C85.497,51.838 84.797,51.694 84.16,51.9C83.064,52.218 82.185,53.045 81.8,54.12C80.53,57.33 80.98,60.5 82.25,63.6C82.472,63.967 82.409,64.443 82.1,64.74C81.797,65.082 81.271,65.122 80.92,64.83C80.65,64.64 80.4,64.42 80.15,64.21C75.383,60.163 70.603,56.117 65.81,52.07C65.412,51.732 64.944,51.486 64.44,51.35C63.287,51.098 62.105,51.7 61.63,52.78C61.12,53.865 61.438,55.171 62.39,55.9L75.77,67.2L77.56,68.73L76.36,70.14L70.19,64.93C66.55,61.86 62.92,58.77 59.26,55.72C58.798,55.306 58.199,55.077 57.579,55.077C56.824,55.077 56.108,55.416 55.63,56C55.229,56.462 55.007,57.054 55.007,57.666C55.007,58.454 55.375,59.2 56,59.68L69.53,71.1L73.05,74.1L71.84,75.51L66,70.54C62.667,67.707 59.31,64.873 55.93,62.04C55.304,61.439 54.413,61.198 53.57,61.4C52.619,61.588 51.868,62.331 51.67,63.28C51.413,64.351 51.844,65.475 52.75,66.1C57.61,70.18 62.44,74.27 67.29,78.36C67.7,78.71 68.1,79.07 68.52,79.44L67.32,80.85Z" style="fill:white;fill-rule:nonzero;"/>
                <path d="M36.63,68.63C37.31,68.63 37.7,69.11 37.69,69.93C37.684,72.184 38.087,74.42 38.88,76.53C40.436,80.792 43.699,84.219 47.88,85.98C48.54,86.28 49.22,86.52 49.88,86.76C50.54,87 50.95,87.56 50.75,88.2C50.6,88.666 50.164,88.984 49.674,88.984C49.51,88.984 49.349,88.949 49.2,88.88C43.09,86.88 38.76,82.88 36.63,76.75C35.869,74.559 35.471,72.259 35.45,69.94C35.48,69.12 35.94,68.62 36.63,68.63Z" style="fill:white;fill-rule:nonzero;"/>
                <path d="M43.27,71.34C43.88,71.34 44.27,71.82 44.41,72.52C44.505,73.557 44.702,74.582 45,75.58C45.779,77.801 47.647,79.472 49.94,80C50.345,80.104 50.699,80.349 50.94,80.69C51.091,81.058 51.05,81.478 50.83,81.81C50.527,82.101 50.108,82.241 49.69,82.19C46.874,81.645 44.482,79.785 43.26,77.19C42.528,75.768 42.151,74.189 42.16,72.59C42.155,72.547 42.152,72.503 42.152,72.46C42.152,71.847 42.657,71.341 43.27,71.34Z" style="fill:white;fill-rule:nonzero;"/>
            </g>
        </g>
    </g>
</svg>
