<svg xmlns="http://www.w3.org/2000/svg" xmlns:xlink="http://www.w3.org/1999/xlink" viewBox="0 0 1429.33 497.88"><defs><style>.cls-1,.cls-13,.cls-15,.cls-17{fill:none;}.cls-2{clip-path:url(#clip-path);}.cls-3{fill:#f2f2f2;}.cls-4{clip-path:url(#clip-path-3);}.cls-5{fill:#bbbaba;}.cls-6{fill:#999;}.cls-7{fill:#dcdcdc;}.cls-8{opacity:0.32;}.cls-9{clip-path:url(#clip-path-4);}.cls-10{fill:#6b6a6a;}.cls-11{fill:#fff;}.cls-12,.cls-23{fill:#3c3c3b;}.cls-13{stroke:#3c3c3b;stroke-width:4.41px;}.cls-13,.cls-17{stroke-miterlimit:10;}.cls-14{fill:#c7b672;}.cls-15{stroke:#bda503;stroke-linecap:round;stroke-linejoin:round;stroke-width:7.25px;}.cls-16{fill:#bda503;}.cls-17{stroke:#fff;stroke-width:3.12px;}.cls-18{font-size:40.64px;fill:#bfa602;font-family:Briston-Regular, Briston;}.cls-19{letter-spacing:-0.02em;}.cls-20{letter-spacing:0em;}.cls-21{letter-spacing:-0.01em;}.cls-22{letter-spacing:0em;}.cls-23{font-size:52.37px;font-family:Facto-Bold, Facto;font-weight:700;}.cls-24{letter-spacing:0em;}.cls-25{letter-spacing:0em;}.cls-26{letter-spacing:0.01em;}.cls-27{letter-spacing:-0.03em;}.cls-28{letter-spacing:-0.05em;}.cls-29{letter-spacing:-0.07em;}</style><clipPath id="clip-path"><rect class="cls-1" y="70" width="1370.88" height="421"/></clipPath><clipPath id="clip-path-3"><rect class="cls-1" y="70" width="1370.88" height="421"/></clipPath><clipPath id="clip-path-4"><rect class="cls-1" x="1130.07" y="434.72" width="70.68" height="21.05"/></clipPath></defs><g id="Ebene_2" data-name="Ebene 2"><g id="Ebene_1-2" data-name="Ebene 1"><g id="Bildmaterial_78" data-name="Bildmaterial 78"><g class="cls-2"><g class="cls-2"><rect class="cls-3" y="70" width="1370.88" height="421"/><g class="cls-4"><path class="cls-5" d="M1429.33,377.58v24.06a36.2,36.2,0,0,1-36.09,36.09H960.15a36.2,36.2,0,0,1-36.1-36.09V381.33"/><path class="cls-6" d="M924.05,381.33V152a36.21,36.21,0,0,1,36.1-36.1h433.09a36.2,36.2,0,0,1,36.09,36.1V377.58"/><rect class="cls-7" x="948.12" y="139.98" width="457.16" height="216.55"/><path class="cls-5" d="M1233.84,470.81c-15-24.06,0-39.1,0-39.1l-54.14-6-54.14,6s15,15,0,39.1c-10.6,17-18.19,20.46-21.76,21.06h151.8c-3.57-.6-11.16-4.09-21.76-21.06"/><rect class="cls-5" x="1071.76" y="485.85" width="213.54" height="12.03"/><g class="cls-8"><g class="cls-9"><path class="cls-10" d="M1200.75,434.72l-70.67,1.5s4.51,7.52,1.5,19.55a524.9,524.9,0,0,1,69.17-21"/></g></g><path class="cls-6" d="M1194.74,406.15a13.54,13.54,0,1,1-13.54-13.54,13.54,13.54,0,0,1,13.54,13.54"/><rect class="cls-11" x="968.88" y="160.74" width="224.13" height="174.03"/><path class="cls-12" d="M995.25,308.4s7.91-65.92,36.91-65.92,39.56,65.92,39.56,65.92Z"/><path class="cls-12" d="M1050.62,217.43a17.14,17.14,0,1,1-17.14-17.14,17.14,17.14,0,0,1,17.14,17.14"/><line class="cls-13" x1="1087.54" y1="218.75" x2="1148.18" y2="218.75"/><line class="cls-13" x1="1087.54" y1="229.3" x2="1166.64" y2="229.3"/><line class="cls-13" x1="1087.54" y1="239.84" x2="1142.91" y2="239.84"/><line class="cls-13" x1="1087.54" y1="279.4" x2="1158.73" y2="279.4"/><line class="cls-13" x1="1087.54" y1="287.31" x2="1140.27" y2="287.31"/><rect class="cls-12" x="1240.47" y="287.31" width="13.18" height="47.46"/><rect class="cls-12" x="1258.93" y="255.67" width="13.18" height="79.1"/><rect class="cls-12" x="1277.39" y="287.31" width="13.18" height="47.46"/><rect class="cls-12" x="1295.84" y="268.85" width="13.18" height="65.92"/><path class="cls-11" d="M1388.4,217.54a44,44,0,1,1-22.28-58.12,44,44,0,0,1,22.28,58.12"/><path class="cls-14" d="M1379.13,213.4A33.86,33.86,0,1,1,1362,168.69a33.86,33.86,0,0,1,17.15,44.71"/><path class="cls-11" d="M1369.85,209.27a23.7,23.7,0,1,1-12-31.3,23.7,23.7,0,0,1,12,31.3"/><path class="cls-14" d="M1357,203.54a9.63,9.63,0,1,1-4.87-12.71,9.63,9.63,0,0,1,4.87,12.71"/><polyline class="cls-15" points="1212.72 267.3 1267.39 206.97 1302.33 250.32 1333.46 214.67"/><polygon class="cls-16" points="1345.58 200.78 1336.49 227.33 1332.55 215.71 1320.5 213.37 1345.58 200.78"/><path class="cls-11" d="M1371.88,310h-29c2,2,11.67,11.09,14.71,11.09s12.3-9.14,14.25-11.09m-15.09,8.62.19-.18.14.13Z"/><path class="cls-11" d="M1374.19,310s-8.31,8.49-13.56,11.78l13,11.91-2.92.05-12-11a3.5,3.5,0,0,1-1.21.29,4.7,4.7,0,0,1-1.9-.59L1343.93,334h32.2V310Z"/><path class="cls-11" d="M1353.88,321.5c-5.41-3.49-13.56-11.48-13.56-11.48h-1.39v24h2.22Z"/><rect class="cls-17" x="1338.93" y="310.29" width="37.32" height="24.24"/></g></g></g></g><text class="cls-18" transform="translate(112.07 165.26) scale(1.11 1)"><tspan class="cls-19">W</tspan><tspan class="cls-20" x="30.96" y="0">ill</tspan><tspan class="cls-21" x="59.55" y="0">k</tspan><tspan x="77.74" y="0">om</tspan><tspan class="cls-22" x="126.16" y="0">m</tspan><tspan class="cls-21" x="155.37" y="0">e</tspan><tspan x="172.16" y="0">n im Kurs</tspan></text><text class="cls-23" transform="translate(112.07 247.36)">G<tspan class="cls-24" x="35.24" y="0">R</tspan><tspan class="cls-25" x="68.49" y="0">UND</tspan><tspan class="cls-26" x="174.27" y="0">L</tspan><tspan class="cls-27" x="201.6" y="0">A</tspan><tspan x="236.27" y="0">GEN </tspan><tspan class="cls-28" x="0" y="59.7">W</tspan><tspan x="43.52" y="59.7">AHRSCHEINLICHKEIT / </tspan><tspan x="0" y="119.4">INFERENZS</tspan><tspan class="cls-29" x="265.38" y="119.4">TA</tspan><tspan class="cls-25" x="323.98" y="119.4">TISTIK</tspan></text><rect class="cls-3" width="1371" height="85"/></g></g></svg>